<?xml version="1.0" standalone="no"?>
<!DOCTYPE svg PUBLIC "-//W3C//DTD SVG 20010904//EN"
 "http://www.w3.org/TR/2001/REC-SVG-20010904/DTD/svg10.dtd">
<svg version="1.0" xmlns="http://www.w3.org/2000/svg"
 width="1344.000000pt" height="896.000000pt" viewBox="0 0 1344.000000 896.000000"
 preserveAspectRatio="xMidYMid meet">
<metadata>
Created by potrace 1.16, written by Peter Selinger 2001-2019
</metadata>
<g transform="translate(0.000000,896.000000) scale(0.100000,-0.100000)"
fill="#000000" stroke="none">
<path d="M4934 8398 c-563 -583 -825 -1376 -699 -2113 33 -187 109 -433 191
-613 l33 -73 -32 -11 c-46 -16 -190 -92 -244 -129 -178 -123 -325 -305 -416
-517 -15 -35 -27 -67 -27 -72 0 -4 19 10 43 32 52 48 230 169 306 207 85 43
224 90 316 106 106 18 304 31 290 18 -5 -5 -54 -27 -109 -48 -210 -83 -453
-236 -607 -382 -132 -126 -209 -235 -267 -377 -53 -127 -52 -128 23 -57 84 78
192 149 277 184 71 28 144 45 135 31 -3 -5 -26 -40 -52 -79 -89 -131 -196
-376 -244 -555 -70 -258 -69 -522 3 -767 32 -110 89 -254 97 -245 4 4 14 32
24 62 10 30 35 90 56 132 l39 78 0 135 c0 589 229 1133 670 1588 65 67 159
156 209 197 50 41 91 77 91 80 0 4 -31 46 -70 93 -141 176 -241 347 -324 554
-259 646 -222 1326 106 1966 28 54 52 97 53 95 2 -2 -12 -48 -31 -102 -78
-223 -104 -382 -104 -638 0 -390 69 -661 219 -859 l50 -66 -16 -49 c-12 -35
-16 -85 -16 -174 0 -169 28 -295 104 -475 l12 -30 8 49 c11 72 63 169 112 211
60 52 169 101 266 121 111 22 294 15 399 -15 180 -52 338 -165 438 -311 93
-135 133 -270 141 -470 6 -144 6 -145 41 -200 54 -83 136 -263 172 -375 35
-112 90 -337 90 -374 0 -42 8 -18 30 89 60 293 157 545 264 689 24 32 26 43
26 139 0 255 69 441 223 601 154 159 353 241 582 241 256 0 464 -105 523 -263
12 -32 22 -69 22 -82 0 -50 20 -32 49 45 52 135 72 233 78 380 4 117 3 143
-14 193 l-20 57 48 60 c145 181 207 394 234 800 15 220 -34 506 -128 753 -15
37 -23 66 -18 63 15 -9 130 -251 174 -366 114 -296 161 -545 160 -855 0 -319
-64 -609 -203 -926 -71 -161 -178 -332 -304 -483 -36 -43 -66 -82 -66 -86 0
-4 46 -45 103 -92 208 -173 415 -412 553 -638 206 -338 324 -752 324 -1136 0
-124 0 -126 37 -202 20 -42 47 -108 59 -147 l22 -70 25 55 c75 169 117 347
124 530 6 157 -6 264 -48 427 -49 191 -180 483 -271 603 -44 58 -36 62 53 31
119 -41 244 -119 345 -215 26 -25 49 -46 51 -46 4 0 -34 96 -67 166 -95 207
-295 407 -571 572 -99 60 -269 141 -346 166 -29 10 -53 20 -53 23 0 3 53 3
118 -1 300 -17 560 -124 816 -338 37 -31 38 -31 31 -8 -13 45 -83 184 -126
250 -62 95 -238 267 -341 334 -76 49 -168 97 -230 119 -15 5 -13 15 19 84 150
324 238 759 218 1078 -31 518 -197 960 -524 1394 -77 103 -284 331 -300 331
-3 0 -7 -60 -7 -133 -2 -144 -16 -220 -62 -341 -66 -169 -182 -299 -512 -573
-113 -93 -242 -205 -288 -248 l-82 -77 -88 83 c-191 184 -408 313 -588 350
-49 10 -69 9 -119 -4 -191 -49 -401 -176 -569 -343 l-81 -80 -130 116 c-71 64
-209 182 -305 262 -248 206 -358 325 -427 463 -60 117 -100 339 -87 472 4 35
5 63 2 63 -3 0 -45 -42 -94 -92z m6 -477 c52 -186 145 -315 450 -627 383 -392
516 -579 528 -745 l5 -70 -47 -44 c-25 -25 -70 -57 -98 -71 -66 -33 -184 -74
-215 -74 -13 0 -23 -3 -23 -8 0 -19 172 -114 285 -158 53 -20 56 -23 28 -24
-55 0 -255 29 -338 50 -44 11 -123 41 -175 66 l-95 45 58 32 c139 74 202 167
202 297 -1 121 -32 175 -209 360 -81 84 -171 190 -202 236 -109 164 -167 343
-182 561 -8 119 -6 260 4 250 3 -2 13 -37 24 -76z m3545 -143 c-10 -193 -45
-338 -117 -483 -54 -109 -125 -201 -277 -358 -157 -164 -184 -212 -190 -335
-3 -77 -1 -88 28 -147 36 -72 88 -123 171 -165 l54 -28 -69 -34 c-127 -64
-247 -96 -437 -119 -122 -14 -150 -9 -78 15 57 19 199 91 259 132 l34 23 -29
6 c-124 27 -263 95 -326 160 -24 24 -28 36 -28 87 0 169 121 346 505 738 236
240 303 319 369 426 44 72 93 189 109 259 l11 50 9 -60 c4 -33 6 -108 2 -167z"/>
<path d="M5470 5389 c0 -26 45 -150 80 -219 57 -113 110 -180 273 -348 178
-185 259 -282 313 -378 38 -69 78 -164 71 -171 -3 -2 -17 17 -32 42 -41 71
-179 238 -242 294 -69 62 -177 119 -314 167 -57 20 -120 44 -139 54 -86 44
-192 155 -266 280 -43 71 -45 73 -38 35 13 -75 54 -207 90 -284 l35 -78 -20
-59 c-57 -171 -51 -333 20 -491 56 -127 147 -232 300 -348 168 -128 174 -142
164 -379 -15 -351 39 -651 162 -888 25 -49 47 -87 49 -85 2 2 -3 36 -12 76
-54 262 -30 529 78 846 l51 150 -12 130 c-12 136 -54 362 -74 404 -10 22 -23
27 -85 38 -223 37 -391 139 -501 304 -35 53 -98 215 -88 226 2 2 27 -28 56
-66 91 -122 216 -220 338 -262 32 -11 121 -35 198 -55 77 -19 150 -38 161 -43
39 -17 106 -250 148 -511 14 -84 27 -154 29 -156 6 -6 44 182 57 281 19 138
24 372 11 484 -32 274 -116 456 -264 569 -31 24 -118 75 -194 113 -197 100
-287 172 -375 303 -16 23 -28 34 -28 25z m261 -750 c15 -93 95 -137 169 -94
14 8 31 17 38 21 8 4 24 -4 39 -19 l26 -25 -43 -27 c-146 -92 -330 0 -330 167
l0 48 48 -19 c40 -16 48 -23 53 -52z"/>
<path d="M7870 5329 c-92 -118 -180 -184 -386 -287 -177 -89 -257 -164 -325
-307 -87 -180 -115 -415 -89 -730 11 -122 31 -256 53 -355 l13 -55 18 115 c32
214 119 548 146 565 5 3 87 26 181 50 224 59 311 100 416 199 44 42 97 100
118 131 21 30 40 53 43 51 2 -3 -4 -30 -13 -62 -73 -252 -299 -434 -580 -469
-36 -5 -59 -13 -64 -24 -25 -47 -67 -277 -81 -441 l-10 -105 50 -150 c68 -210
90 -321 97 -501 6 -154 -4 -271 -33 -368 -7 -27 -12 -51 -10 -53 8 -8 75 122
110 212 83 217 109 384 110 725 1 305 -4 290 144 402 174 132 268 243 325 388
55 140 61 311 14 450 l-25 73 39 81 c36 76 78 206 93 286 l6 35 -21 -35 c-91
-149 -197 -265 -285 -312 -28 -15 -98 -44 -154 -64 -127 -44 -197 -78 -275
-136 -62 -46 -185 -190 -261 -305 -51 -77 -56 -67 -15 29 53 125 135 232 326
428 178 182 242 264 304 387 29 59 84 213 78 219 -1 2 -27 -29 -57 -67z m-112
-683 c-3 -49 -10 -73 -31 -103 -62 -90 -181 -112 -285 -53 -51 30 -52 31 -36
54 23 36 43 39 76 11 33 -28 87 -33 126 -11 32 17 62 65 62 99 0 23 7 31 43
47 23 10 44 19 46 19 2 1 1 -28 -1 -63z"/>
<path d="M4857 4565 c-242 -206 -391 -503 -404 -805 l-5 -115 39 65 c38 65
198 240 220 240 6 0 13 -14 17 -31 10 -49 74 -169 128 -237 27 -35 48 -65 46
-66 -2 -2 -32 -22 -68 -46 -198 -133 -356 -365 -420 -616 -11 -43 -22 -80 -25
-83 -10 -9 5 238 21 352 8 60 28 161 44 225 17 64 30 120 30 124 0 11 -77 -19
-137 -53 -68 -39 -172 -135 -213 -196 -36 -55 -37 -85 -15 -275 44 -377 153
-643 351 -856 64 -70 181 -168 189 -160 2 2 -7 26 -20 53 -45 91 -58 167 -53
305 4 100 10 142 33 210 28 88 98 233 139 288 l23 32 6 -88 c7 -114 39 -269
83 -401 72 -216 231 -499 357 -636 l56 -60 -24 76 c-58 184 -60 375 -7 534 17
52 32 84 35 75 3 -8 22 -60 43 -115 68 -187 152 -317 354 -545 69 -78 149
-176 178 -218 94 -137 187 -336 236 -506 28 -95 29 -91 47 107 10 120 2 305
-17 387 -4 19 16 3 83 -65 148 -150 287 -349 418 -599 61 -114 69 -125 81
-109 7 10 14 22 14 27 0 4 34 68 75 142 129 231 243 388 394 544 81 83 82 84
76 50 -3 -19 -10 -82 -16 -140 -10 -104 -8 -145 13 -333 l10 -98 44 132 c53
162 142 347 220 456 33 44 115 144 183 221 68 77 150 178 183 224 72 100 155
265 189 370 13 43 27 78 31 78 4 0 19 -37 34 -82 49 -153 45 -370 -11 -545
l-24 -78 25 30 c144 172 209 270 293 445 102 210 163 426 179 628 l7 93 52
-88 c100 -169 145 -317 147 -478 1 -129 -13 -183 -82 -329 -3 -5 24 13 59 40
292 224 450 565 490 1050 11 134 10 142 -9 180 -54 107 -220 239 -348 278
l-22 7 24 -83 c43 -146 65 -293 70 -458 3 -116 1 -145 -6 -115 -34 133 -98
279 -173 390 -52 76 -175 198 -252 250 -33 21 -64 42 -69 46 -4 4 15 37 43 74
57 74 102 156 121 223 7 23 17 42 22 42 21 0 176 -171 213 -235 48 -82 51 -75
36 80 -23 239 -113 443 -282 644 -48 58 -198 195 -205 188 -1 -1 1 -47 5 -102
22 -299 -56 -546 -256 -813 -32 -42 -119 -140 -193 -217 -75 -77 -146 -154
-158 -172 -38 -54 -52 -112 -68 -273 -39 -419 -115 -662 -248 -795 -120 -119
-282 -177 -496 -177 -126 0 -181 10 -278 49 l-64 25 -67 -26 c-160 -62 -322
-68 -506 -21 -158 42 -289 145 -358 282 -71 140 -123 367 -151 658 -15 155
-30 213 -68 268 -12 18 -85 97 -163 177 -163 168 -254 286 -324 420 -97 188
-132 326 -132 520 1 69 5 142 10 163 5 20 6 37 1 37 -4 0 -41 -29 -83 -65z
m392 -1268 c14 -25 20 -60 26 -157 3 -69 13 -158 21 -199 21 -102 76 -251 119
-323 19 -33 35 -62 35 -66 0 -14 -135 128 -189 198 -144 191 -231 449 -231
689 l0 73 100 -92 c55 -50 108 -106 119 -123z m3121 136 c0 -217 -74 -451
-201 -639 -47 -70 -208 -249 -216 -240 -2 2 10 27 28 55 81 133 138 343 144
537 2 62 8 123 15 136 12 24 209 217 223 218 4 0 7 -30 7 -67z m-2303 -1434
c77 -33 278 -95 408 -125 163 -38 277 -38 440 0 157 37 268 69 379 111 50 19
92 32 94 31 2 -2 -36 -36 -84 -76 -296 -244 -527 -325 -754 -266 -140 37 -358
168 -502 302 -53 50 -50 53 19 23z"/>
<path d="M6534 2926 c-148 -28 -307 -90 -348 -135 -65 -72 11 -308 144 -442
200 -203 534 -201 735 5 129 131 203 354 144 430 -30 39 -148 94 -258 123
-120 30 -311 39 -417 19z"/>
</g>
</svg>
